<?xml version="1.0" standalone="no"?><svg xmlns="http://www.w3.org/2000/svg" viewBox="0 0 1440 320"><path fill="#a2d9ff" fill-opacity="1" d="M0,64L24,85.3C48,107,96,149,144,144C192,139,240,85,288,69.3C336,53,384,75,432,90.7C480,107,528,117,576,112C624,107,672,85,720,85.3C768,85,816,107,864,117.3C912,128,960,128,1008,138.7C1056,149,1104,171,1152,186.7C1200,203,1248,213,1296,192C1344,171,1392,117,1416,90.7L1440,64L1440,320L1416,320C1392,320,1344,320,1296,320C1248,320,1200,320,1152,320C1104,320,1056,320,1008,320C960,320,912,320,864,320C816,320,768,320,720,320C672,320,624,320,576,320C528,320,480,320,432,320C384,320,336,320,288,320C240,320,192,320,144,320C96,320,48,320,24,320L0,320Z"></path></svg>